<?xml version="1.0" encoding="iso-8859-1"?>
<!-- Generator: Adobe Illustrator 19.0.0, SVG Export Plug-In . SVG Version: 6.00 Build 0)  -->
<svg version="1.1" id="Capa_1" xmlns="http://www.w3.org/2000/svg" xmlns:xlink="http://www.w3.org/1999/xlink" x="0px" y="0px"
	 viewBox="0 0 512 512" style="enable-background:new 0 0 512 512;" fill="white" xml:space="preserve">
<g>
	<g>
		<path d="M256,0C114.615,0,0,114.615,0,256s114.615,256,256,256s256-114.615,256-256C511.84,114.681,397.319,0.16,256,0z
			 M413.474,130.492c28.572,35.589,44.134,79.869,44.109,125.508c0,2.398-0.145,4.779-0.196,7.177
			c-6.155-4.634-12.965-8.327-20.207-10.957c-0.69-36.993-12.83-72.864-34.748-102.673
			C406.998,143.751,410.716,137.335,413.474,130.492z M333.943,355.917c-19.117,15.093-42.241,24.246-66.509,26.325v-17.869
			c24.562-2.52,47.519-13.384,65.041-30.78v7.433C332.487,346.025,332.978,351.012,333.943,355.917z M129.51,264.533h17.971
			c1.904,25.607,12.875,49.696,30.942,67.942h-4.54c-5.844,0.021-11.666,0.702-17.357,2.031v-0.017
			C140.643,314.446,131.222,290.05,129.51,264.533z M139.58,340.523c-6.048,2.968-11.687,6.705-16.777,11.119
			c-18.466-25.677-29.132-56.135-30.72-87.723c3.102,0.392,6.226,0.597,9.353,0.614h11.008
			C114.03,291.938,123.448,318.312,139.58,340.523z M164.548,264.533h37.274c1.947,12.425,8.09,23.809,17.408,32.256
			c-0.764,13.271-8.466,25.156-20.267,31.275C179.244,312.52,166.797,289.541,164.548,264.533z M178.057,156.092
			c19.953-15.612,44.133-24.875,69.41-26.59v17.98c-25.607,1.903-49.697,12.873-67.942,30.942v-7.432
			C179.514,165.989,179.023,161,178.057,156.092z M248.115,92.1c-0.402,3.096-0.619,6.214-0.649,9.335v10.999
			c-26.971,1.577-52.952,10.721-74.965,26.385c-2.768-6.142-6.322-11.899-10.573-17.126
			C187.234,103.786,217.146,93.515,248.115,92.1z M149.538,109.602c-5.795-4.56-12.208-8.275-19.046-11.034
			C166.073,69.977,210.355,54.4,256,54.417c2.398,0,4.787,0.145,7.177,0.239c-4.629,6.158-8.322,12.967-10.957,20.207
			C215.226,75.558,179.355,87.694,149.538,109.602z M247.467,164.548v0.034v37.06c-11.212,1.765-21.596,6.975-29.713,14.908h-0.393
			c-13.357-0.051-25.691-7.162-32.427-18.697C200.441,178.782,222.987,166.773,247.467,164.548z M218.163,256
			c0.104-20.872,17.089-37.718,37.961-37.649c20.872,0.069,37.746,17.027,37.712,37.899c-0.034,20.872-16.964,37.774-37.836,37.775
			C235.059,293.954,218.13,276.941,218.163,256z M262.716,437.018c35.978-1.229,70.746-13.299,99.746-34.628
			c5.797,4.56,12.209,8.278,19.046,11.042c-35.583,28.588-79.864,44.164-125.508,44.151c-1.442,0-2.91-0.094-4.361-0.128
			C256.333,451.235,260.067,444.346,262.716,437.018z M266.837,419.814c0.382-3.069,0.582-6.158,0.597-9.25v-0.034v-11.17
			c25.941-2.037,50.846-11.066,72.064-26.129c2.774,6.141,6.331,11.898,10.581,17.126
			C325.603,407.71,296.781,417.909,266.837,419.814z M267.435,347.187v-0.034v-37.282c10.12-2.179,19.415-7.179,26.812-14.421h0.393
			c13.357,0.051,25.691,7.162,32.427,18.696C312.2,332.445,290.832,344.285,267.435,347.187z M333.585,179.524h7.424
			c5.002-0.01,9.991-0.501,14.899-1.468c15.608,19.956,24.87,44.134,26.59,69.41h-17.98
			C362.615,221.861,351.648,197.773,333.585,179.524z M347.452,247.467h-37.274c-1.738-11.178-6.881-21.548-14.729-29.696v-0.418
			c0.051-13.357,7.162-25.691,18.696-32.427C333.222,200.433,345.231,222.984,347.452,247.467z M373.18,172.501
			c6.142-2.768,11.899-6.322,17.126-10.573c17.906,25.307,28.177,55.218,29.594,86.187c-3.096-0.402-6.214-0.619-9.336-0.649
			h-10.999C397.987,220.496,388.843,194.515,373.18,172.501z M341.009,40.405c33.135,0.784,59.587,27.869,59.587,61.013
			c0,33.144-26.453,60.23-59.587,61.013v0.026h-7.723c-26.035,0.043-48.472,18.335-53.76,43.827
			c-4.746-2.267-9.797-3.831-14.993-4.642V101.436c0.033-33.689,27.333-60.993,61.022-61.03H341.009z M256,17.067
			c19.621-0.002,39.167,2.414,58.197,7.194c-12.68,1.876-24.699,6.859-34.987,14.507c-7.703-0.916-15.453-1.389-23.211-1.417
			c-53.906-0.047-105.909,19.93-145.92,56.055c-10.661-1.223-21.461-0.212-31.71,2.97C123.609,45.883,188.206,17.042,256,17.067z
			 M40.414,170.991c-0.369-22.041,11.179-42.568,30.208-53.696c19.029-11.128,42.581-11.128,61.61,0
			c19.029,11.128,30.577,31.655,30.208,53.696h0.017v7.723c0.035,26.087,18.391,48.561,43.947,53.803
			c-2.233,4.739-3.776,9.774-4.582,14.95H101.436c-33.686-0.038-60.984-27.336-61.022-61.022V170.991z M17.067,256
			c-0.003-19.624,2.416-39.174,7.202-58.206c1.863,12.697,6.848,24.733,14.507,35.029c-0.918,7.692-1.394,15.43-1.425,23.177
			c-0.108,55.275,20.906,108.502,58.743,148.796c-0.145,1.911-0.29,3.823-0.29,5.768c0.018,9.114,1.645,18.152,4.804,26.701
			C47.59,391.97,17.062,325.732,17.067,256z M100.574,383.915C70.696,347.99,54.363,302.725,54.417,256
			c0-2.406,0.145-4.787,0.239-7.177c6.161,4.63,12.973,8.322,20.215,10.957c0.866,37.782,13.512,74.349,36.173,104.593
			C106.637,370.352,103.111,376.933,100.574,383.915z M173.884,471.586c-33.299-0.557-60.001-27.71-60.001-61.013
			s26.702-60.456,60.001-61.013h7.731c25.58-0.047,47.747-17.735,53.47-42.667c4.878,2.035,10.026,3.346,15.283,3.891v99.78
			c-0.038,33.689-27.341,60.989-61.03,61.022H173.884z M256,494.933c-19.225-0.006-38.379-2.335-57.045-6.938
			c13.139-1.62,25.644-6.576,36.326-14.396c7.074,0.683,13.918,1.084,20.719,1.084c53.908,0.043,105.91-19.936,145.92-56.064
			c2.875,0.33,5.767,0.501,8.661,0.512c7.811,0.005,15.579-1.169,23.04-3.482C388.381,466.132,323.787,494.965,256,494.933z
			 M471.586,341.009c-0.557,33.299-27.71,60.001-61.013,60.001s-60.456-26.702-61.013-60.001h-0.017v-7.731
			c-0.048-26.074-18.404-48.528-43.947-53.76c2.234-4.751,3.777-9.797,4.582-14.985h100.386
			c33.686,0.038,60.984,27.336,61.022,61.022V341.009z M487.731,314.197c-1.867-12.683-6.851-24.704-14.507-34.987
			c0.919-7.703,1.395-15.453,1.425-23.211c0.047-53.906-19.93-105.909-56.055-145.92c1.223-10.661,0.212-21.461-2.97-31.71
			c65.941,59.127,93.703,149.916,72.107,235.81V314.197z"/>
	</g>
</g>
<g>
</g>
<g>
</g>
<g>
</g>
<g>
</g>
<g>
</g>
<g>
</g>
<g>
</g>
<g>
</g>
<g>
</g>
<g>
</g>
<g>
</g>
<g>
</g>
<g>
</g>
<g>
</g>
<g>
</g>
</svg>
