<?xml version="1.0" encoding="iso-8859-1"?>
<!-- Generator: Adobe Illustrator 19.0.0, SVG Export Plug-In . SVG Version: 6.00 Build 0)  -->
<svg version="1.1" id="Capa_1" xmlns="http://www.w3.org/2000/svg" xmlns:xlink="http://www.w3.org/1999/xlink" x="0px" y="0px"
	 viewBox="0 0 480 480" fill="white" style="enable-background:new 0 0 480 480;" xml:space="preserve">
<g>
	<g>
		<path d="M440,128H40c-22.08,0.026-39.974,17.92-40,40v112c0.021,15.886,9.44,30.254,24,36.608V352h48v-32h336v32h48v-35.392
			c14.56-6.354,23.979-20.722,24-36.608V168C479.974,145.92,462.08,128.026,440,128z M56,336H40v-16h16V336z M440,336h-16v-16h16
			V336z M464,280c0,13.255-10.745,24-24,24H40c-13.255,0-24-10.745-24-24h112v-16H16v-16h112v-16H16v-16h112v-16H16v-16h112v-16H16
			c0-13.255,10.745-24,24-24h400c13.255,0,24,10.745,24,24V280z"/>
	</g>
</g>
<g>
	<g>
		<path d="M376,160c-35.346,0-64,28.654-64,64c0,35.346,28.654,64,64,64c35.346,0,64-28.654,64-64
			C439.96,188.67,411.33,160.04,376,160z M376,272c-26.51,0-48-21.49-48-48c0-26.51,21.49-48,48-48c26.51,0,48,21.49,48,48
			C423.974,250.499,402.499,271.974,376,272z"/>
	</g>
</g>
<g>
	<g>
		<path d="M376,192c-17.673,0-32,14.327-32,32s14.327,32,32,32c17.673,0,32-14.327,32-32S393.673,192,376,192z M376,240
			c-8.837,0-16-7.163-16-16s7.163-16,16-16s16,7.163,16,16S384.837,240,376,240z"/>
	</g>
</g>
<g>
	<g>
		<rect x="144" y="168" width="32" height="16"/>
	</g>
</g>
<g>
	<g>
		<rect x="144" y="200" width="32" height="16"/>
	</g>
</g>
<g>
	<g>
		<rect x="144" y="232" width="32" height="16"/>
	</g>
</g>
<g>
	<g>
		<rect x="144" y="264" width="32" height="16"/>
	</g>
</g>
<g>
	<g>
		<path d="M280,160c-13.255,0-24,10.745-24,24s10.745,24,24,24s24-10.745,24-24S293.255,160,280,160z M280,192c-4.418,0-8-3.582-8-8
			s3.582-8,8-8s8,3.582,8,8S284.418,192,280,192z"/>
	</g>
</g>
<g>
</g>
<g>
</g>
<g>
</g>
<g>
</g>
<g>
</g>
<g>
</g>
<g>
</g>
<g>
</g>
<g>
</g>
<g>
</g>
<g>
</g>
<g>
</g>
<g>
</g>
<g>
</g>
<g>
</g>
</svg>
