<?xml version="1.0" encoding="iso-8859-1"?>
<!-- Generator: Adobe Illustrator 16.0.0, SVG Export Plug-In . SVG Version: 6.00 Build 0)  -->
<!DOCTYPE svg PUBLIC "-//W3C//DTD SVG 1.1//EN" "http://www.w3.org/Graphics/SVG/1.1/DTD/svg11.dtd">
<svg version="1.1" id="Capa_1" xmlns="http://www.w3.org/2000/svg" xmlns:xlink="http://www.w3.org/1999/xlink" x="0px" y="0px"
	 width="50px" height="50px"  fill="white" viewBox="0 0 50 50" style="enable-background:new 0 0 50 50;" xml:space="preserve">
<g>
	<g>
		<polygon points="41.035,31.896 8.966,31.896 8.966,8.974 5.863,8.974 5.863,35 44.139,35 44.139,8.974 41.035,8.974 		"/>
		<path d="M45.689,3.405H28.734C28.46,1.485,26.822,0,24.828,0s-3.633,1.485-3.908,3.405H4.311c-0.905,0-1.639,0.926-1.639,2.069
			s0.734,2.068,1.639,2.068h41.378c0.904,0,1.639-0.925,1.639-2.068S46.596,3.405,45.689,3.405z M23.046,3.405
			c0.242-0.768,0.936-1.335,1.782-1.335c0.846,0,1.54,0.567,1.781,1.335H23.046z"/>
		<path d="M26.552,42.363v-6.242h-3.104v6.242c-4.679,0.595-8.275,3.779-8.275,7.637h3.103c0-2.154,2.25-4.011,5.172-4.512V50h3.104
			v-4.512c2.923,0.501,5.173,2.356,5.173,4.512h3.103C34.828,46.143,31.23,42.958,26.552,42.363z"/>
	</g>
</g>
<g>
</g>
<g>
</g>
<g>
</g>
<g>
</g>
<g>
</g>
<g>
</g>
<g>
</g>
<g>
</g>
<g>
</g>
<g>
</g>
<g>
</g>
<g>
</g>
<g>
</g>
<g>
</g>
<g>
</g>
</svg>
